<svg id="Layer_2" height="512" viewBox="0 0 512 512" width="512" xmlns="http://www.w3.org/2000/svg" xmlns:xlink="http://www.w3.org/1999/xlink" data-name="Layer 2"><linearGradient id="linear-gradient" gradientTransform="matrix(0 1 -1 0 512 0)" gradientUnits="userSpaceOnUse" x1="43.93" x2="468.07" y1="43.93" y2="468.07"><stop offset="0" stop-color="#2492ff"/><stop offset="1" stop-color="#0043ae"/></linearGradient><g id="Icon"><g id="_134" data-name="134"><rect id="Background" fill="url(#linear-gradient)" height="512" rx="150" transform="matrix(0 -1 1 0 0 512)" width="512"/><g fill="#fff"><path d="m243.22 173.47 82.53 82.53-82.53 82.53c-9.76 9.76-9.76 25.59 0 35.36 9.76 9.76 25.59 9.76 35.36 0l100.21-100.21c9.76-9.76 9.76-25.59 0-35.36l-100.21-100.21c-9.76-9.76-25.59-9.76-35.36 0-9.76 9.76-9.76 25.59 0 35.36z"/><path d="m168.57 138.11 100.21 100.21c9.76 9.76 9.76 25.59 0 35.36l-100.21 100.21c-9.76 9.76-25.59 9.76-35.36 0-9.76-9.76-9.76-25.59 0-35.36l82.53-82.53-82.53-82.53c-9.76-9.76-9.76-25.59 0-35.36 9.76-9.76 25.59-9.76 35.36 0z"/></g></g></g></svg>